<?xml version="1.0" encoding="utf-8"?>
<!-- Generator: Adobe Illustrator 15.1.0, SVG Export Plug-In  -->
<!DOCTYPE svg PUBLIC "-//W3C//DTD SVG 1.1//EN" "http://www.w3.org/Graphics/SVG/1.1/DTD/svg11.dtd" [
	<!ENTITY ns_flows "http://ns.adobe.com/Flows/1.0/">
]>
<svg version="1.1"
	 xmlns="http://www.w3.org/2000/svg" xmlns:xlink="http://www.w3.org/1999/xlink" xmlns:a="http://ns.adobe.com/AdobeSVGViewerExtensions/3.0/"
	 x="0px" y="0px" width="171px" height="171px" viewBox="0.218 -4.11 171 171"
	 overflow="visible" enable-background="new 0.218 -4.11 171 171" xml:space="preserve">
<defs>
</defs>
<path fill="#FFFFFF" d="M161.775,105.447c2.549-7.837,3.943-16.189,3.943-24.865C165.718,36.149,129.569,0,85.135,0
	S4.552,36.149,4.552,80.582c0,8.754,1.422,17.178,4.015,25.076C3.351,111.167,0,118.961,0,129.25
	c0,23.448,17.396,33.943,34.637,33.943c0.553,0,1.014-0.013,1.361-0.027H51.5v-9.384v-15.743v-8.789V95.334H35.998
	c-0.347-0.015-0.808-0.027-1.361-0.027c-4.725,0-9.458,0.794-13.846,2.421c-1.454-5.472-2.239-11.216-2.239-17.146
	C18.552,43.81,48.362,14,85.135,14c36.772,0,66.583,29.81,66.583,66.582c0,5.896-0.775,11.61-2.214,17.055
	c-4.315-1.564-8.956-2.33-13.59-2.33c-0.554,0-1.014,0.013-1.36,0.027h-15.502v33.916v8.627v15.778v9.511h15.502
	c0.347,0.015,0.807,0.027,1.36,0.027c17.241,0,34.638-10.495,34.638-33.943C170.552,118.826,167.109,110.968,161.775,105.447z
	 M25.358,109.919c5.305-1.952,10.309-1.585,10.309-1.585H38.5v19.756v1.16v16.988v3.928h-2.833c0,0-22.667,1.668-22.667-20.916
	c0-3.828,0.662-6.944,1.743-9.505C17.045,114.296,21.285,111.417,25.358,109.919z M134.884,150.166h-2.832v-4.128V129.25v-1.429
	v-19.487h2.832c0,0,4.855-0.353,10.07,1.502c4.075,1.448,8.359,4.256,10.734,9.629c1.152,2.611,1.863,5.817,1.863,9.785
	C157.552,151.834,134.884,150.166,134.884,150.166z"/>
</svg>
