<?xml version="1.0" encoding="utf-8"?>
<!-- Generator: Adobe Illustrator 15.1.0, SVG Export Plug-In  -->
<!DOCTYPE svg PUBLIC "-//W3C//DTD SVG 1.1//EN" "http://www.w3.org/Graphics/SVG/1.1/DTD/svg11.dtd" [
	<!ENTITY ns_flows "http://ns.adobe.com/Flows/1.0/">
]>
<svg version="1.1"
	 xmlns="http://www.w3.org/2000/svg" xmlns:xlink="http://www.w3.org/1999/xlink" xmlns:a="http://ns.adobe.com/AdobeSVGViewerExtensions/3.0/"
	 x="0px" y="0px" width="173px" height="173px" viewBox="-42.048 0.308 173 173"
	 overflow="visible" enable-background="new -42.048 0.308 173 173" xml:space="preserve">
<defs>
</defs>
<path fill="#FFFFFF" d="M73.827,0H14.173C6.345,0,0,6.346,0,14.173v144.32c0,7.827,6.345,14.173,14.173,14.173h59.653
	c7.828,0,14.174-6.346,14.174-14.173V14.173C88,6.346,81.655,0,73.827,0z M38.246,15.128h12.509c0.942,0,1.705,0.764,1.705,1.705
	s-0.763,1.705-1.705,1.705H38.246c-0.941,0-1.705-0.764-1.705-1.705S37.304,15.128,38.246,15.128z M30.032,15.128
	c0.941,0,1.705,0.763,1.705,1.705s-0.764,1.705-1.705,1.705s-1.705-0.763-1.705-1.705S29.09,15.128,30.032,15.128z M44,165
	c-4.464,0-8.083-3.619-8.083-8.083s3.619-8.083,8.083-8.083c4.465,0,8.084,3.619,8.084,8.083S48.465,165,44,165z M81.167,141.292
	c0,0.392-0.317,0.708-0.709,0.708H7.542c-0.391,0-0.708-0.316-0.708-0.708V31.375c0-0.391,0.317-0.708,0.708-0.708h72.915
	c0.392,0,0.709,0.317,0.709,0.708V141.292z"/>
</svg>
