<?xml version="1.0" encoding="utf-8"?>
<!-- Generator: Adobe Illustrator 15.1.0, SVG Export Plug-In  -->
<!DOCTYPE svg PUBLIC "-//W3C//DTD SVG 1.1//EN" "http://www.w3.org/Graphics/SVG/1.1/DTD/svg11.dtd" [
	<!ENTITY ns_flows "http://ns.adobe.com/Flows/1.0/">
]>
<svg version="1.1"
	 xmlns="http://www.w3.org/2000/svg" xmlns:xlink="http://www.w3.org/1999/xlink" xmlns:a="http://ns.adobe.com/AdobeSVGViewerExtensions/3.0/"
	 x="0px" y="0px" width="194px" height="194px" viewBox="-0.034 -34.866 194 194"
	 overflow="visible" enable-background="new -0.034 -34.866 194 194" xml:space="preserve">
<defs>
</defs>
<path fill="#FFFFFF" d="M76.108,0C35.133,0,1.917,21.977,1.917,49.085c0,14.572,9.601,27.658,24.841,36.648
	c-2.177,4.741-8.735,16.622-23.218,26.207c0,0-4.356,3.009-3.404,4.658c0.321,0.558,0.91,0.87,4.479,0
	c3.429-0.837,30.848-8.817,47.11-21.145c7.637,1.758,15.84,2.717,24.383,2.717c40.976,0,74.191-21.977,74.191-49.086
	C150.299,21.977,117.083,0,76.108,0z"/>
<path fill="#FFFFFF" d="M191.345,123.067c-9.507-6.292-13.812-14.092-15.242-17.204c10.006-5.901,16.309-14.493,16.309-24.059
	c0-15.742-17.062-28.844-39.616-31.662c-0.471,33.472-39.681,45.209-51.137,47.926c8.454,9.546,24.117,15.959,42.047,15.959
	c5.608,0,10.993-0.63,16.008-1.783c10.676,8.092,28.677,13.331,30.927,13.88c2.342,0.572,2.729,0.367,2.94,0
	C194.206,125.042,191.345,123.067,191.345,123.067z"/>
</svg>
