<?xml version="1.0" encoding="utf-8"?>
<!-- Generator: Adobe Illustrator 15.1.0, SVG Export Plug-In  -->
<!DOCTYPE svg PUBLIC "-//W3C//DTD SVG 1.1//EN" "http://www.w3.org/Graphics/SVG/1.1/DTD/svg11.dtd" [
	<!ENTITY ns_flows "http://ns.adobe.com/Flows/1.0/">
]>
<svg version="1.1"
	 xmlns="http://www.w3.org/2000/svg" xmlns:xlink="http://www.w3.org/1999/xlink" xmlns:a="http://ns.adobe.com/AdobeSVGViewerExtensions/3.0/"
	 x="0px" y="0px" width="160px" height="160px" viewBox="-0.782 -8.292 160 160"
	 overflow="visible" enable-background="new -0.782 -8.292 160 160" xml:space="preserve">
<defs>
</defs>
<path fill="#FFFFFF" d="M146.662,31.555H84.144l24.867-25.617c1.346-1.387,1.314-3.603-0.074-4.949
	c-1.387-1.347-3.602-1.313-4.949,0.074L79.21,26.589L54.432,1.063c-1.348-1.388-3.564-1.421-4.949-0.074
	c-1.388,1.347-1.42,3.562-0.074,4.949l24.867,25.617H11.339C5.076,31.555,0,36.631,0,42.894v89.822
	c0,6.263,5.076,11.339,11.339,11.339h135.323c6.262,0,11.338-5.076,11.338-11.339V42.894C158,36.631,152.923,31.555,146.662,31.555z
	 M120.375,115.172c0,9.394-7.613,17.008-17.008,17.008H27.633c-9.394,0-17.008-7.614-17.008-17.008V60.438
	c0-9.394,7.614-17.008,17.008-17.008h75.734c9.395,0,17.008,7.614,17.008,17.008V115.172z M138.75,84.18
	c-4.557,0-8.25-3.693-8.25-8.25s3.693-8.25,8.25-8.25s8.25,3.693,8.25,8.25S143.306,84.18,138.75,84.18z M138.75,59.93
	c-4.557,0-8.25-3.693-8.25-8.25s3.693-8.25,8.25-8.25s8.25,3.693,8.25,8.25S143.306,59.93,138.75,59.93z"/>
</svg>
