<?xml version="1.0" encoding="utf-8"?>
<!-- Generator: Adobe Illustrator 15.1.0, SVG Export Plug-In  -->
<!DOCTYPE svg PUBLIC "-//W3C//DTD SVG 1.1//EN" "http://www.w3.org/Graphics/SVG/1.1/DTD/svg11.dtd" [
	<!ENTITY ns_flows "http://ns.adobe.com/Flows/1.0/">
]>
<svg version="1.1"
	 xmlns="http://www.w3.org/2000/svg" xmlns:xlink="http://www.w3.org/1999/xlink" xmlns:a="http://ns.adobe.com/AdobeSVGViewerExtensions/3.0/"
	 x="0px" y="0px" width="194px" height="194px" viewBox="-0.517 -24.809 194 194"
	 overflow="visible" enable-background="new -0.517 -24.809 194 194" xml:space="preserve">
<defs>
</defs>
<circle fill="#FFFFFF" cx="97.336" cy="133.293" r="11.933"/>
<path fill="#FFFFFF" d="M59.231,99.084c0,0,15.03-15.523,37.485-15.523c22.454,0,32.199,10.085,38.205,15.523l-16.316,16.656
	c0,0-8.271-8.838-21.529-8.838s-21.188,8.838-21.188,8.838L59.231,99.084z"/>
<path fill="#FFFFFF" d="M29.776,69.586L46.167,86.6c0,0,18.515-21.371,51.169-21.371c32.654,0,50.705,21.371,50.705,21.371
	l16.599-17.014c0,0-26.974-28.218-67.432-28.218S29.776,69.586,29.776,69.586z"/>
<path fill="#FFFFFF" d="M16.498,56.722c0,0,30.134-33.405,80.839-33.405c50.705,0,80.374,33.405,80.374,33.405l15.722-16.703
	c0,0-34.549-40.02-96.716-40.02C34.548,0,0,41.368,0,41.368L16.498,56.722z"/>
</svg>
